<?xml version="1.0" encoding="UTF-8"?>
<svg width="210px" height="17px" viewBox="0 0 210 17" version="1.1" xmlns="http://www.w3.org/2000/svg" xmlns:xlink="http://www.w3.org/1999/xlink">
    <!-- Generator: Sketch 58 (84663) - https://sketch.com -->
    <title>Logo</title>
    <desc>Created with Sketch.</desc>
    <g id="Site---Desktop" stroke="none" stroke-width="1" fill="none" fill-rule="evenodd">
        <g id="Desktop---Home" transform="translate(-120.000000, -60.000000)">
            <g id="Header" transform="translate(120.000000, 60.000000)">
                <g id="Logo">
                    <path d="M138.899639,4.92692903 C141.533501,4.92692903 144.014831,6.54960645 144.014831,10.7058323 L144.014831,11.3057677 L135.438668,11.3057677 C135.525675,13.9511871 136.76634,15.4175742 139.095675,15.4175742 C140.858386,15.4175742 141.882069,14.7507355 142.121609,13.3951226 L143.927824,13.3951226 C143.536289,15.7290581 141.641992,16.9514129 139.073655,16.9514129 C135.852223,16.9514129 133.566928,14.6399613 133.566928,11.0617355 L133.566928,10.8835097 C133.566928,7.3721871 135.765215,4.92692903 138.899639,4.92692903 Z M157.99546,4.92692903 C160.172801,4.92692903 162.153031,5.83834839 162.153031,9.08315484 L162.153031,16.7512516 L160.346816,16.7512516 L160.346816,15.2843161 C159.498223,16.3734129 158.47454,16.9514129 156.798836,16.9514129 C154.68702,16.9514129 153.011317,15.9067355 153.011317,13.5283806 C153.011317,10.8390903 155.797174,9.92821935 158.714079,9.92821935 L160.346816,9.92821935 L160.346816,9.08315484 C160.346816,7.23838065 159.650217,6.46076774 157.90899,6.46076774 C156.341777,6.46076774 155.471164,7.12760645 155.297148,8.54957419 L153.489322,8.54957419 C153.729399,5.90525161 155.797174,4.92692903 157.99546,4.92692903 Z M169.927327,4.92720323 C172.299629,4.92720323 174.519936,6.03823548 174.867967,8.99404194 L173.082698,8.99404194 C172.800192,7.14981613 171.49454,6.46049355 169.927327,6.46049355 C167.858478,6.46049355 166.269783,8.15007419 166.269783,10.8837839 L166.269783,11.0614613 C166.269783,13.9059452 167.793491,15.4173 169.991777,15.4173 C171.603031,15.4173 173.061752,14.4620097 173.257788,12.5728161 L174.933491,12.5728161 C174.693951,15.084429 172.713184,16.9511387 169.969757,16.9511387 C166.792366,16.9511387 164.397506,14.662171 164.397506,11.0614613 L164.397506,10.8837839 C164.397506,7.32749355 166.879373,4.92720323 169.927327,4.92720323 Z M204.528345,4.92692903 C207.162207,4.92692903 209.643,6.54960645 209.643,10.7058323 L209.643,11.3057677 L201.06791,11.3057677 C201.154381,13.9511871 202.395046,15.4175742 204.724381,15.4175742 C206.487629,15.4175742 207.510775,14.7507355 207.749777,13.3951226 L209.556529,13.3951226 C209.164995,15.7290581 207.270698,16.9514129 204.702361,16.9514129 C201.480391,16.9514129 199.19456,14.6399613 199.19456,11.0617355 L199.19456,10.8835097 C199.19456,7.3721871 201.393921,4.92692903 204.528345,4.92692903 Z M129.703465,2.48216452 L129.703465,5.12703548 L132.359348,5.12703548 L132.359348,6.68280968 L129.703465,6.68280968 L129.703465,13.6621323 C129.703465,14.7951 130.204565,15.3511645 131.118146,15.3511645 C131.68477,15.3511645 132.119808,15.2623258 132.511343,15.1065839 L132.511343,16.6623581 C132.141829,16.7956161 131.706253,16.9063903 130.966151,16.9063903 C128.898376,16.9063903 127.897251,15.6621 127.897251,13.8398097 L127.897251,6.68280968 L126.264514,6.68280968 L126.264514,5.12703548 L127.897251,5.12703548 L127.897251,2.48216452 L129.703465,2.48216452 Z M179.437266,2.48216452 L179.437266,5.12703548 L182.093685,5.12703548 L182.093685,6.68280968 L179.437266,6.68280968 L179.437266,13.6621323 C179.437266,14.7951 179.937829,15.3511645 180.852483,15.3511645 C181.41857,15.3511645 181.853609,15.2623258 182.24568,15.1065839 L182.24568,16.6623581 C181.875092,16.7956161 181.439517,16.9063903 180.700488,16.9063903 C178.632176,16.9063903 177.630514,15.6621 177.630514,13.8398097 L177.630514,6.68280968 L175.998315,6.68280968 L175.998315,5.12703548 L177.630514,5.12703548 L177.630514,2.48216452 L179.437266,2.48216452 Z M111.794118,0.859870968 L111.794118,16.7510323 L109.900358,16.7510323 L109.900358,0.859870968 L111.794118,0.859870968 Z M120.658749,4.92703871 C123.009568,4.92703871 124.663788,6.23823226 124.663788,9.61684516 L124.663788,16.7513613 L122.857573,16.7513613 L122.857573,9.4835871 C122.857573,7.43865161 122.008442,6.52723226 120.17967,6.52723226 C118.50343,6.52723226 117.001205,7.61687742 117.001205,9.70568387 L117.001205,16.7513613 L115.19499,16.7513613 L115.19499,5.1272 L117.001205,5.1272 L117.001205,6.97197419 C117.524325,5.88287742 118.786473,4.92703871 120.658749,4.92703871 Z M151.952294,4.92703871 L151.952294,6.66103871 C149.666463,6.7718129 148.207742,7.50500645 148.207742,10.3725226 L148.207742,16.7513613 L146.40099,16.7513613 L146.40099,5.1272 L148.207742,5.1272 L148.207742,7.21655484 C148.925824,5.9048129 149.904928,4.99339355 151.952294,4.92703871 Z M186.086317,5.12741935 L186.086317,16.7515806 L184.279028,16.7515806 L184.279028,5.12741935 L186.086317,5.12741935 Z M189.900368,5.1272 L193.274332,14.8841032 L196.604793,5.1272 L198.476532,5.1272 L194.384486,16.7513613 L192.077171,16.7513613 L187.941621,5.1272 L189.900368,5.1272 Z M160.346816,11.2394129 L158.779604,11.2394129 C156.493772,11.2394129 154.818069,11.8174129 154.818069,13.5283806 C154.818069,14.7288 155.383619,15.483929 156.972852,15.483929 C158.888095,15.483929 160.346816,14.4842194 160.346816,12.6838645 L160.346816,11.2394129 Z M138.899639,6.46076774 C137.049921,6.46076774 135.808719,7.74947742 135.504192,9.81689677 L142.165113,9.81689677 C141.99056,7.41660645 140.771379,6.46076774 138.899639,6.46076774 Z M204.528345,6.46076774 C202.67809,6.46076774 201.436887,7.74947742 201.132361,9.81689677 L207.793281,9.81689677 C207.619266,7.41660645 206.400084,6.46076774 204.528345,6.46076774 Z M185.149642,0.259935484 C185.802737,0.259935484 186.34734,0.815451613 186.34734,1.48229032 C186.34734,2.14858065 185.802737,2.70464516 185.149642,2.70464516 C184.497084,2.70464516 183.953018,2.14858065 183.953018,1.48229032 C183.953018,0.815451613 184.497084,0.259935484 185.149642,0.259935484 Z" id="Interactive" fill="#FFB800"></path>
                    <path d="M9.20969503,1 L14,17 L10.5109542,17 L9.49909018,13.4419905 L4.15037485,13.4419905 L3.13902031,17 L0,17 L4.85246379,1 L9.20969503,1 Z M20.8953223,4.86518065 C23.5291841,4.86518065 25.9670102,6.04256774 26.2500537,9.37676129 L23.267624,9.37676129 C23.0506419,8.02114839 22.2450153,7.39818065 20.9608465,7.39818065 C19.32811,7.39818065 18.239977,8.64356774 18.239977,10.8656323 L18.239977,11.0433097 C18.239977,13.3772452 19.2625857,14.5771161 21.0258338,14.5771161 C22.2885192,14.5771161 23.311665,13.8219871 23.4641969,12.3331161 L26.315578,12.3331161 C26.1410256,15.0887613 24.1822788,16.9998903 20.8738389,16.9998903 C17.5433785,16.9998903 15.0180077,14.8886 15.0180077,11.0882774 L15.0180077,10.9106 C15.0180077,7.15414839 17.6518696,4.86518065 20.8953223,4.86518065 Z M32.9154859,4.86518065 C35.5493478,4.86518065 37.9871739,6.04256774 38.2702174,9.37676129 L35.2877877,9.37676129 C35.0708056,8.02114839 34.265179,7.39818065 32.9804731,7.39818065 C31.3482737,7.39818065 30.2596036,8.64356774 30.2596036,10.8656323 L30.2596036,11.0433097 C30.2596036,13.3772452 31.2827494,14.5771161 33.0459974,14.5771161 C34.3086829,14.5771161 35.3318286,13.8219871 35.4838235,12.3331161 L38.3352046,12.3331161 C38.1611893,15.0887613 36.2024425,16.9998903 32.8934655,16.9998903 C29.5630051,16.9998903 27.0381714,14.8886 27.0381714,11.0882774 L27.0381714,10.9106 C27.0381714,7.15414839 29.6720332,4.86518065 32.9154859,4.86518065 Z M44.9135754,4.86501613 C47.8525013,4.86501613 50.4643427,6.62095161 50.4643427,10.776629 L50.4643427,11.6655645 L42.2582302,11.6655645 C42.3452379,13.5997258 43.3683836,14.7107581 45.0881279,14.7107581 C46.546312,14.7107581 47.2643939,14.0658548 47.4604297,13.0880806 L50.4423223,13.0880806 C50.0722711,15.5996935 48.1135243,16.9997258 45.0005831,16.9997258 C41.5610946,16.9997258 39.0582813,14.7995968 39.0582813,11.0881129 L39.0582813,10.9104355 C39.0582813,7.24337097 41.6051355,4.86501613 44.9135754,4.86501613 Z M75.1489565,5.13164194 L75.1489565,12.1773194 C75.1489565,13.755029 75.7805678,14.5107065 77.1297238,14.5107065 C78.4579335,14.5107065 79.5025627,13.6661903 79.5025627,11.9552226 L79.5025627,5.13164194 L82.6369872,5.13164194 L82.6369872,16.7558032 L79.5025627,16.7558032 L79.5025627,14.9329645 C78.9149923,16.1109 77.760798,16.9998355 75.8885217,16.9998355 C73.6687519,16.9998355 72.014532,15.6667065 72.014532,12.6215129 L72.014532,5.13164194 L75.1489565,5.13164194 Z M97.9464706,4.86501613 C100.884859,4.86501613 103.496701,6.62095161 103.496701,10.776629 L103.496701,11.6655645 L95.2905882,11.6655645 C95.3775959,13.5997258 96.4002046,14.7107581 98.1204859,14.7107581 C99.5786701,14.7107581 100.297289,14.0658548 100.493325,13.0880806 L103.475217,13.0880806 C103.105166,15.5996935 101.145882,16.9997258 98.0334783,16.9997258 C94.5939898,16.9997258 92.0911765,14.7995968 92.0911765,11.0881129 L92.0911765,10.9104355 C92.0911765,7.24337097 94.6374936,4.86501613 97.9464706,4.86501613 Z M68.368266,2.61991935 L68.368266,5.13153226 L70.7631253,5.13153226 L70.7631253,7.42104839 L68.368266,7.42104839 L68.368266,13.0217258 C68.368266,13.955629 68.8253248,14.3992742 69.6314885,14.3992742 C70.1100307,14.3992742 70.4580614,14.3329194 70.8281125,14.1777258 L70.8281125,16.6668548 C70.3925371,16.8220484 69.7614629,16.9777903 68.9128696,16.9777903 C66.5185473,16.9777903 65.2338414,15.7335 65.2338414,13.3107258 L65.2338414,7.42104839 L63.7756573,7.42104839 L63.7756573,5.13153226 L65.2338414,5.13153226 L65.2338414,2.61991935 L68.368266,2.61991935 Z M58.8469949,4.86523548 C61.0893223,4.86523548 62.6780179,6.24278387 62.6780179,9.35433226 L62.6780179,16.7553645 L59.52211,16.7553645 L59.52211,9.82100968 C59.52211,8.2433 58.9125192,7.48707419 57.5193223,7.48707419 C56.1696292,7.48707419 55.1470205,8.33213871 55.1470205,10.0436548 L55.1470205,16.7553645 L51.9905754,16.7553645 L51.9905754,5.13175161 L55.1470205,5.13175161 L55.1470205,6.97652581 C55.7125703,5.82052581 56.9532353,4.86523548 58.8469949,4.86523548 Z M91.5713862,4.95407419 L91.5713862,7.9543 C89.2415141,7.93181613 87.8923581,8.70942903 87.8923581,10.9325903 L87.8923581,16.7553645 L84.735913,16.7553645 L84.735913,5.13175161 L87.8923581,5.13175161 L87.8923581,7.35436452 C88.6104399,5.79804194 89.7205934,4.97600968 91.5713862,4.95407419 Z M6.83492248,3.95396508 L4.87284373,10.8684519 L8.7756023,10.8684519 L6.83492248,3.95396508 Z M44.9135754,7.08762903 C43.4988951,7.08762903 42.5407366,8.04291935 42.301734,9.68808065 L47.3949054,9.68808065 C47.2858772,7.93214516 46.4152634,7.08762903 44.9135754,7.08762903 Z M97.9464706,7.08762903 C96.5312532,7.08762903 95.5736317,8.04291935 95.3346292,9.68808065 L100.427801,9.68808065 C100.319309,7.93214516 99.4486957,7.08762903 97.9464706,7.08762903 Z" id="Accenture" fill="#000000"></path>
                </g>
            </g>
        </g>
    </g>
</svg>